<svg xmlns="http://www.w3.org/2000/svg" xmlns:svg="http://www.w3.org/2000/svg" id="svg2" width="100%" height="100%" version="1.1" viewBox="0 0 300 300" xml:space="preserve" style="fill-rule:evenodd;stroke-linejoin:round;stroke-miterlimit:1.41420996"><metadata id="metadata131"/><g id="Icon" transform="matrix(1.0955049,0.21858281,-0.21858281,1.0955049,-682.78994,-741.09414)"><g id="g5" transform="matrix(0.98067,-0.19567,0.19567,0.98067,-1111.46,141.794)"><path id="path7" d="m 1904.51,793.676 -24.52,16.365 -25.26,-37.855 24.52,-16.365 25.26,37.855 z" style="fill:url(#_Linear1)"/></g><g id="g9" transform="matrix(0.98067,-0.19567,0.19567,0.98067,687.732,524.632)"><path id="path11" d="m 234.942,179.915 41.895,62.78 -49.907,33.305 -41.895,-62.781 -7.309,-10.951 49.908,-33.305 7.308,10.952 z" style="fill:url(#_Linear2)"/></g><g id="g13" transform="matrix(0.98067,-0.19567,0.19567,0.98067,687.732,524.632)"><path id="path15" d="m 172.083,221.862 9.224,13.822 -37.987,25.35 -16.533,-24.774 8.299,-5.538 29.689,-19.812 7.308,10.952 z" style="fill:url(#_Linear3)"/></g><g id="g17" transform="matrix(0.98067,-0.19567,0.19567,0.98067,687.732,524.632)"><path id="path19" d="m 255.696,150.236 10.655,-7.11 16.532,24.774 -24.523,16.365 -9.224,-13.822 13.868,-9.255 -7.308,-10.952 z m -6.56,20.207 -7.308,-10.952 13.868,-9.255 7.308,10.952 -13.868,9.255 z" style="fill:url(#_Linear4)"/></g><g id="g21" transform="matrix(0.98067,-0.19567,0.19567,0.98067,687.732,524.632)"><path id="path23" d="m 83.746,153.788 -8.298,5.538 -25.262,-37.855 37.987,-25.35 17.707,26.535 -29.688,19.812 29.688,-19.812 7.555,11.321 -29.689,19.811 z" style="fill:url(#_Linear5)"/></g><g id="g25" transform="matrix(0.98067,-0.19567,0.19567,0.98067,687.732,524.632)"><path id="path27" d="m 168.74,80.708 7.554,11.321 -49.908,33.305 -7.554,-11.321 -41.503,-62.192 49.908,-33.305 41.503,62.192 z" style="fill:url(#_Linear6)"/></g><g id="g29" transform="matrix(0.98067,-0.19567,0.19567,0.98067,687.732,524.632)"><path id="path31" d="m 204.356,73.303 -13.868,9.254 -7.555,-11.32 -17.707,-26.535 24.523,-16.365 25.262,37.855 -10.655,7.111 z" style="fill:url(#_Linear7)"/></g><g id="g33" transform="matrix(0.98067,-0.19567,0.19567,0.98067,687.732,524.632)"><path id="path35" d="m 142.395,241.674 -7.309,-10.952 29.689,-19.812 7.308,10.952 -29.688,19.812 z" style="fill:#714896"/></g><g id="g37" transform="matrix(0.98067,-0.19567,0.19567,0.98067,687.732,524.632)"><path id="path39" d="m 249.136,170.443 -7.308,-10.952 13.868,-9.255 7.308,10.952 -13.868,9.255 z" style="fill:#6f4795"/></g><g id="g41" transform="matrix(0.98067,-0.19567,0.19567,0.98067,687.732,524.632)"><path id="path43" d="m 83.746,153.788 -7.554,-11.32 29.688,-19.812 7.555,11.321 -29.689,19.811 z" style="fill:#88519f"/></g><g id="g45" transform="matrix(0.98067,-0.19567,0.19567,0.98067,687.732,524.632)"><path id="path47" d="m 190.488,82.557 -7.555,-11.32 13.869,-9.255 7.554,11.321 -13.868,9.254 z" style="fill:#85509e"/></g><g id="g49" transform="matrix(0.98067,-0.19567,0.19567,0.98067,687.732,524.632)"><path id="path51" d="m 234.942,179.915 -49.907,33.304 -7.309,-10.951 49.908,-33.305 7.308,10.952 z" style="fill:#8d166a"/></g><g id="g53" transform="matrix(0.98067,-0.19567,0.19567,0.98067,687.732,524.632)"><path id="path55" d="m 168.74,80.708 7.554,11.321 -49.908,33.305 -7.554,-11.321 49.908,-33.305 z" style="fill:#a70d6f"/></g><g id="g57" transform="matrix(0.0838394,0.0838394,-0.0838394,0.0838394,897.184,285.926)"><rect id="rect59" width="143.131" height="143.131" x="1003" y="2520" style="fill:#9e61ad"/></g><g id="g61" transform="matrix(0.0838394,0.0838394,-0.0838394,0.0838394,980.184,441.926)"><rect id="rect63" width="143.131" height="143.131" x="1003" y="2520" style="fill:#8053a3"/></g><g id="g65" transform="translate(-196.486,-2023.23)"><path id="path67" d="m 1015.85,2781.73 -52.745,-53.14 187.685,-188.08 54.52,51.77 -189.46,189.45 z" style="fill:url(#_Linear8)"/></g></g><defs id="defs69"><linearGradient id="_Linear1" x1="0" x2="1" y1="0" y2="0" gradientTransform="matrix(311.539,311.539,-311.539,311.539,1661.51,677.648)" gradientUnits="userSpaceOnUse"><stop id="stop72" style="stop-color:#c06fbb;stop-opacity:1" offset="0"/><stop id="stop74" style="stop-color:#6e4d9b;stop-opacity:1" offset="1"/></linearGradient><linearGradient id="_Linear2" x1="0" x2="1" y1="0" y2="0" gradientTransform="matrix(-168.486,-248.455,240.79,-173.85,250.023,259.328)" gradientUnits="userSpaceOnUse"><stop id="stop77" style="stop-color:#6e4d9b;stop-opacity:1" offset="0"/><stop id="stop79" style="stop-color:#77327a;stop-opacity:1" offset=".14"/><stop id="stop81" style="stop-color:#b31777;stop-opacity:1" offset=".29"/><stop id="stop83" style="stop-color:#cd0f7e;stop-opacity:1" offset=".84"/><stop id="stop85" style="stop-color:#ed2c89;stop-opacity:1" offset="1"/></linearGradient><linearGradient id="_Linear3" x1="0" x2="1" y1="0" y2="0" gradientTransform="matrix(311.539,398.641,-311.539,398.641,-27.9866,-136.75)" gradientUnits="userSpaceOnUse"><stop id="stop88" style="stop-color:#c06fbb;stop-opacity:1" offset="0"/><stop id="stop90" style="stop-color:#6e4d9b;stop-opacity:1" offset="1"/></linearGradient><linearGradient id="_Linear4" x1="0" x2="1" y1="0" y2="0" gradientTransform="matrix(379.008,311.539,-379.008,311.539,-95.31,-49.8356)" gradientUnits="userSpaceOnUse"><stop id="stop93" style="stop-color:#c06fbb;stop-opacity:1" offset="0"/><stop id="stop95" style="stop-color:#6e4d9b;stop-opacity:1" offset="1"/></linearGradient><linearGradient id="_Linear5" x1="0" x2="1" y1="0" y2="0" gradientTransform="matrix(353.797,311.539,-353.797,311.539,-38.5899,-49.8356)" gradientUnits="userSpaceOnUse"><stop id="stop98" style="stop-color:#c06fbb;stop-opacity:1" offset="0"/><stop id="stop100" style="stop-color:#6e4d9b;stop-opacity:1" offset="1"/></linearGradient><linearGradient id="_Linear6" x1="0" x2="1" y1="0" y2="0" gradientTransform="matrix(-168.959,-249.473,241.466,-174.562,266.435,289.783)" gradientUnits="userSpaceOnUse"><stop id="stop103" style="stop-color:#6e4d9b;stop-opacity:1" offset="0"/><stop id="stop105" style="stop-color:#77327a;stop-opacity:1" offset=".14"/><stop id="stop107" style="stop-color:#b31777;stop-opacity:1" offset=".29"/><stop id="stop109" style="stop-color:#cd0f7e;stop-opacity:1" offset=".84"/><stop id="stop111" style="stop-color:#ed2c89;stop-opacity:1" offset="1"/></linearGradient><linearGradient id="_Linear7" x1="0" x2="1" y1="0" y2="0" gradientTransform="matrix(311.539,375.658,-311.539,375.658,-27.9866,-65.9245)" gradientUnits="userSpaceOnUse"><stop id="stop114" style="stop-color:#c06fbb;stop-opacity:1" offset="0"/><stop id="stop116" style="stop-color:#6e4d9b;stop-opacity:1" offset="1"/></linearGradient><linearGradient id="_Linear8" x1="0" x2="1" y1="0" y2="0" gradientTransform="matrix(191.237,-188.333,188.333,191.237,990.204,2756.77)" gradientUnits="userSpaceOnUse"><stop id="stop119" style="stop-color:#6e4d9b;stop-opacity:1" offset="0"/><stop id="stop121" style="stop-color:#77327a;stop-opacity:1" offset=".14"/><stop id="stop123" style="stop-color:#b31777;stop-opacity:1" offset=".53"/><stop id="stop125" style="stop-color:#cd0f7e;stop-opacity:1" offset=".79"/><stop id="stop127" style="stop-color:#ed2c89;stop-opacity:1" offset="1"/></linearGradient></defs><rect style="opacity:0;fill:none;stroke:#000;stroke-width:1.7884953px;stroke-linecap:butt;stroke-linejoin:miter;stroke-opacity:1" id="rect3102" width="298.212" height="298.212" x=".894" y=".894"/></svg>