<svg xmlns="http://www.w3.org/2000/svg" xmlns:xlink="http://www.w3.org/1999/xlink" preserveAspectRatio="xMidYMid" version="1.1" viewBox="0 0 256 320"><polygon fill="#00E8FF" points="64 192 89.926 147.273 128.159 128.159 192.133 192.133 202.966 253.887 192 320 128 256 89.926 230.385"/><path fill="#283198" d="M128,256 L128,128 L192,64 L192,192 L128,256 Z M0,256 L64,320 L73.2016406,259.398301 L64,192 L26.457793,215.709199 L0,256 Z"/><path fill="#324FFF" d="M64,192 L64,64 L128,0 L128,128 L64,192 Z M192,320 L192,192 L256,128 L256,256 L192,320 Z M0,256 L0,128 L64,192 L0,256 Z"/><polygon fill="#0FF" points="64 320 64 192 128 256"/></svg>